# xmcd CD database file generated by LOLA_Freedb v0.9beta0
# 
# Track frame offsets:
#      150
#      16986
#      31638
#      55164
#      71616
#      97728
#      112086
#      127271
#      149638
#      162061
#      175371
#      188855
# 
# Disc length: 2699 seconds
# 
# Revision: 0 
# Processed by: cddbd v1.5.2PL0 Copyright (c) Steve Scherf et al.
# Submitted via: LOLA_Freedb v0.9beta0
# 
DISCID=a40a890c
DTITLE=Cindy Price - Giving It All To You
DYEAR=2008
DGENRE=
TTITLE0=Cindy Price - No Shortage
TTITLE1=Cindy Price - I Don't Know Why Jesus Loved Me
TTITLE2=Cindy Price - Holy Blood
TTITLE3=Cindy Price - Adonai
TTITLE4=Cindy Price - When I Survey The Cross
TTITLE5=Cindy Price - Unfailing Love
TTITLE6=Cindy Price - Givin' It All Back To You
TTITLE7=Cindy Price - Scars
TTITLE8=Cindy Price - Not Goin' Back
TTITLE9=Cindy Price - Higher Ground
TTITLE10=Cindy Price - I Will Celebrate
TTITLE11=Cindy Price - No One Ever Cared For Me Like Jesus
EXTD=
EXTT0=
EXTT1=
EXTT2=
EXTT3=
EXTT4=
EXTT5=
EXTT6=
EXTT7=
EXTT8=
EXTT9=
EXTT10=
EXTT11=
PLAYORDER=
